<?xml version="1.0" encoding="UTF-8"?>
<!DOCTYPE svg PUBLIC "-//W3C//DTD SVG 1.1//EN" "http://www.w3.org/Graphics/SVG/1.1/DTD/svg11.dtd">
<svg xmlns="http://www.w3.org/2000/svg" version="1.1" width="435px" height="435px" style="shape-rendering:geometricPrecision; text-rendering:geometricPrecision; image-rendering:optimizeQuality; fill-rule:evenodd; clip-rule:evenodd" xmlns:xlink="http://www.w3.org/1999/xlink">
<g><path style="opacity:0.988" fill="#eae611" d="M 209.5,-0.5 C 214.5,-0.5 219.5,-0.5 224.5,-0.5C 312.016,5.99573 375.516,48.3291 415,126.5C 425.738,150.522 432.238,175.522 434.5,201.5C 434.5,211.833 434.5,222.167 434.5,232.5C 425.33,317.149 382.663,378.316 306.5,416C 283.955,425.635 260.622,431.801 236.5,434.5C 223.5,434.5 210.5,434.5 197.5,434.5C 113.297,423.777 53.13,380.11 17,303.5C 7.36283,280.288 1.5295,256.288 -0.5,231.5C -0.5,221.833 -0.5,212.167 -0.5,202.5C 6.76001,129.122 41.0933,72.2891 102.5,32C 135.469,12.0116 171.136,1.17832 209.5,-0.5 Z"/></g>
<g><path style="opacity:1" fill="#076838" d="M 203.5,60.5 C 271.294,58.466 322.127,86.466 356,144.5C 380.104,195.298 379.104,245.631 353,295.5C 325.891,339.99 286.391,365.823 234.5,373C 167.61,377.806 116.444,351.973 81,295.5C 49.1242,232.889 54.1242,173.556 96,117.5C 124.455,84.6878 160.289,65.6878 203.5,60.5 Z"/></g>
<g><path style="opacity:1" fill="#eae611" d="M 214.5,108.5 C 218.426,108.047 221.592,109.38 224,112.5C 225.379,117.036 225.879,121.703 225.5,126.5C 252.721,131.887 269.221,148.221 275,175.5C 275.101,190.873 275.767,206.206 277,221.5C 280.809,233.979 287.809,244.312 298,252.5C 300.122,258.287 299.789,263.953 297,269.5C 294.742,271.43 292.242,272.93 289.5,274C 240.833,274.667 192.167,274.667 143.5,274C 134.87,269.115 132.37,261.949 136,252.5C 146.518,244.128 153.518,233.462 157,220.5C 158.266,205.888 158.933,191.221 159,176.5C 164.338,148.662 180.838,131.995 208.5,126.5C 208.334,122.486 208.501,118.486 209,114.5C 210.36,111.977 212.193,109.977 214.5,108.5 Z"/></g>
<g><path style="opacity:1" fill="#e6e412" d="M 158.5,115.5 C 167.161,114.329 170.994,117.996 170,126.5C 151.381,145.677 141.715,168.677 141,195.5C 136.333,200.833 131.667,200.833 127,195.5C 124.842,163.799 135.342,137.132 158.5,115.5 Z"/></g>
<g><path style="opacity:1" fill="#e6e412" d="M 267.5,115.5 C 274.191,114.429 279.358,116.762 283,122.5C 300.475,142.923 308.808,166.589 308,193.5C 303.814,200.538 298.814,201.205 293,195.5C 292.121,177.775 287.455,161.108 279,145.5C 274.385,138.55 269.385,131.884 264,125.5C 263.182,121.469 264.349,118.136 267.5,115.5 Z"/></g>
<g><path style="opacity:1" fill="#8fb421" d="M 246.5,285.5 C 237.023,284.168 227.19,283.501 217,283.5C 206.81,283.501 196.977,284.168 187.5,285.5C 186.596,284.791 186.263,283.791 186.5,282.5C 206.833,282.5 227.167,282.5 247.5,282.5C 247.737,283.791 247.404,284.791 246.5,285.5 Z"/></g>
<g><path style="opacity:1" fill="#e9e511" d="M 246.5,285.5 C 241.911,300.075 231.911,307.409 216.5,307.5C 201.662,306.997 191.996,299.664 187.5,285.5C 196.977,284.168 206.81,283.501 217,283.5C 227.19,283.501 237.023,284.168 246.5,285.5 Z"/></g>
</svg>
