<?xml version="1.0" encoding="UTF-8"?>
<!DOCTYPE svg PUBLIC "-//W3C//DTD SVG 1.1//EN" "http://www.w3.org/Graphics/SVG/1.1/DTD/svg11.dtd">
<svg xmlns="http://www.w3.org/2000/svg" version="1.1" width="1540px" height="394px" style="shape-rendering:geometricPrecision; text-rendering:geometricPrecision; image-rendering:optimizeQuality; fill-rule:evenodd; clip-rule:evenodd" xmlns:xlink="http://www.w3.org/1999/xlink">
<g><path style="opacity:0.99" fill="#e9e611" d="M 536.5,-0.5 C 541.167,-0.5 545.833,-0.5 550.5,-0.5C 613.266,3.65777 663.599,30.6578 701.5,80.5C 697.366,81.4849 693.032,81.8182 688.5,81.5C 701.806,141.364 714.473,201.364 726.5,261.5C 703.143,321.353 660.81,361.186 599.5,381C 524.194,400.301 458.694,383.134 403,329.5C 397.927,323.936 393.094,318.269 388.5,312.5C 388.17,234.995 387.17,157.661 385.5,80.5C 423.411,30.7061 473.744,3.70606 536.5,-0.5 Z"/></g>
<g><path style="opacity:1" fill="#076838" d="M 526.5,54.5 C 594.668,50.9772 643.502,79.6439 673,140.5C 690.437,188.038 685.437,233.038 658,275.5C 619.262,324.75 569.096,342.916 507.5,330C 449.476,311.643 415.309,272.476 405,212.5C 399.709,151.918 422.543,105.418 473.5,73C 490.228,63.7039 507.894,57.5372 526.5,54.5 Z"/></g>
<g><path style="opacity:0.961" fill="#056838" d="M 1179.5,64.5 C 1201.56,63.2357 1213.23,73.5691 1214.5,95.5C 1213.83,115.508 1203.49,125.841 1183.5,126.5C 1168.01,126.525 1158.17,119.192 1154,104.5C 1152.68,95.2013 1153.68,86.2013 1157,77.5C 1162.54,69.6487 1170.04,65.3154 1179.5,64.5 Z"/></g>
<g><path style="opacity:0.974" fill="#056838" d="M 1308.5,66.5 C 1323.52,66.0466 1338.19,68.0466 1352.5,72.5C 1353.22,83.4868 1353.06,94.4868 1352,105.5C 1351.78,106.938 1351.28,108.271 1350.5,109.5C 1314.08,96.6017 1298.08,109.268 1302.5,147.5C 1317.5,147.5 1332.5,147.5 1347.5,147.5C 1347.5,159.833 1347.5,172.167 1347.5,184.5C 1332.5,184.5 1317.5,184.5 1302.5,184.5C 1302.5,229.833 1302.5,275.167 1302.5,320.5C 1285.5,320.5 1268.5,320.5 1251.5,320.5C 1251.5,275.167 1251.5,229.833 1251.5,184.5C 1243.83,184.5 1236.17,184.5 1228.5,184.5C 1228.5,172.167 1228.5,159.833 1228.5,147.5C 1236.17,147.5 1243.83,147.5 1251.5,147.5C 1251.19,135.461 1251.69,123.461 1253,111.5C 1256.48,92.6836 1266.98,79.5169 1284.5,72C 1292.45,69.3143 1300.45,67.481 1308.5,66.5 Z"/></g>
<g><path style="opacity:0.969" fill="#056838" d="M -0.5,70.5 C 16.5,70.5 33.5,70.5 50.5,70.5C 50.3333,115.501 50.5,160.501 51,205.5C 69.5321,186.636 87.6988,167.469 105.5,148C 124.5,147.333 143.5,147.333 162.5,148C 143.132,168.367 124.132,189.033 105.5,210C 125.96,246.419 146.293,282.919 166.5,319.5C 147.842,320.666 129.176,320.833 110.5,320C 95.7931,294.085 80.9597,268.252 66,242.5C 61,247.5 56,252.5 51,257.5C 50.5,278.497 50.3334,299.497 50.5,320.5C 33.5,320.5 16.5,320.5 -0.5,320.5C -0.5,237.167 -0.5,153.833 -0.5,70.5 Z"/></g>
<g><path style="opacity:0.984" fill="#056838" d="M 385.5,80.5 C 387.17,157.661 388.17,234.995 388.5,312.5C 388.5,315.167 388.5,317.833 388.5,320.5C 368.257,320.827 348.091,320.493 328,319.5C 298.254,264.34 268.254,209.34 238,154.5C 237.5,209.832 237.333,265.166 237.5,320.5C 221.833,320.5 206.167,320.5 190.5,320.5C 190.5,240.5 190.5,160.5 190.5,80.5C 211.177,80.167 231.844,80.5003 252.5,81.5C 281.745,136.992 311.245,192.325 341,247.5C 341.5,191.834 341.667,136.168 341.5,80.5C 356.167,80.5 370.833,80.5 385.5,80.5 Z"/></g>
<g><path style="opacity:0.978" fill="#056838" d="M 701.5,80.5 C 715.079,80.177 728.579,80.5103 742,81.5C 752.906,142.276 764.24,202.942 776,263.5C 790,202.833 804,142.167 818,81.5C 836.435,80.1751 854.935,80.1751 873.5,81.5C 888.144,142.889 902.977,204.222 918,265.5C 928.601,203.892 938.768,142.226 948.5,80.5C 966.17,80.3334 983.836,80.5001 1001.5,81C 983.928,160.691 966.928,240.525 950.5,320.5C 928.258,320.827 906.091,320.494 884,319.5C 871.476,265.406 858.643,211.406 845.5,157.5C 832.069,211.653 819.403,265.986 807.5,320.5C 784.831,320.667 762.164,320.5 739.5,320C 734.978,300.56 730.645,281.06 726.5,261.5C 714.473,201.364 701.806,141.364 688.5,81.5C 693.032,81.8182 697.366,81.4849 701.5,80.5 Z"/></g>
<g><path style="opacity:0.974" fill="#056838" d="M 1074.5,90.5 C 1076.83,90.5 1079.17,90.5 1081.5,90.5C 1081.5,109.5 1081.5,128.5 1081.5,147.5C 1096.5,147.5 1111.5,147.5 1126.5,147.5C 1126.5,159.833 1126.5,172.167 1126.5,184.5C 1111.5,184.5 1096.5,184.5 1081.5,184.5C 1081.33,212.502 1081.5,240.502 1082,268.5C 1083.68,279.674 1090.18,284.674 1101.5,283.5C 1111.35,283.16 1120.52,280.493 1129,275.5C 1131.87,286.841 1134.37,298.341 1136.5,310C 1136.41,311.107 1136.08,312.107 1135.5,313C 1110.69,325.017 1085.02,327.35 1058.5,320C 1040.69,311.569 1031.52,297.402 1031,277.5C 1030.5,246.502 1030.33,215.502 1030.5,184.5C 1021.83,184.5 1013.17,184.5 1004.5,184.5C 1004.5,172.167 1004.5,159.833 1004.5,147.5C 1013.17,147.5 1021.83,147.5 1030.5,147.5C 1030.5,130.5 1030.5,113.5 1030.5,96.5C 1045.37,94.9764 1060.03,92.9764 1074.5,90.5 Z"/></g>
<g><path style="opacity:1" fill="#eae611" d="M 540.5,97.5 C 544.192,96.9712 547.358,97.9712 550,100.5C 551.367,104.7 551.867,109.033 551.5,113.5C 574.493,117.989 588.993,131.656 595,154.5C 595.153,168.865 595.82,183.198 597,197.5C 598.61,202.331 600.61,206.997 603,211.5C 608.044,216.876 612.711,222.542 617,228.5C 618.888,236.534 616.055,242.034 608.5,245C 564.833,245.667 521.167,245.667 477.5,245C 471.15,241.292 468.65,235.792 470,228.5C 474.289,222.542 478.956,216.876 484,211.5C 486.837,206.828 488.837,201.828 490,196.5C 491.24,182.88 491.907,169.213 492,155.5C 497.824,132.009 512.49,117.675 536,112.5C 536.333,108.833 536.667,105.167 537,101.5C 537.69,99.6498 538.856,98.3164 540.5,97.5 Z"/></g>
<g><path style="opacity:1" fill="#e6e412" d="M 492.5,102.5 C 499.685,102.848 502.519,106.515 501,113.5C 484.66,130.518 476.327,150.852 476,174.5C 471.667,179.833 467.333,179.833 463,174.5C 461.042,145.513 470.875,121.513 492.5,102.5 Z"/></g>
<g><path style="opacity:1" fill="#e5e312" d="M 590.5,102.5 C 592.655,102.372 594.655,102.872 596.5,104C 616.679,123.203 625.845,146.703 624,174.5C 619.667,179.833 615.333,179.833 611,174.5C 610.673,150.852 602.34,130.518 586,113.5C 584.393,108.438 585.893,104.772 590.5,102.5 Z"/></g>
<g><path style="opacity:0.99" fill="#056838" d="M 1158.5,147.5 C 1175.17,147.5 1191.83,147.5 1208.5,147.5C 1208.5,205.167 1208.5,262.833 1208.5,320.5C 1191.83,320.5 1175.17,320.5 1158.5,320.5C 1158.5,262.833 1158.5,205.167 1158.5,147.5 Z"/></g>
<g><path style="opacity:0.972" fill="#056838" d="M 1539.5,147.5 C 1539.5,148.5 1539.5,149.5 1539.5,150.5C 1514.99,218.183 1490.16,285.85 1465,353.5C 1459.37,369.291 1449.2,381.124 1434.5,389C 1429.46,390.849 1424.46,392.349 1419.5,393.5C 1410.83,393.5 1402.17,393.5 1393.5,393.5C 1385.18,392.042 1377.02,389.709 1369,386.5C 1369.7,374.182 1370.53,361.849 1371.5,349.5C 1377.4,351.3 1383.4,352.8 1389.5,354C 1401.9,357.204 1411.73,353.704 1419,343.5C 1422.11,336.949 1424.94,330.282 1427.5,323.5C 1405.64,265.244 1383.97,206.911 1362.5,148.5C 1380.82,147.5 1399.15,147.167 1417.5,147.5C 1429.02,187.571 1440.86,227.571 1453,267.5C 1464.4,227.798 1475.9,188.132 1487.5,148.5C 1504.82,147.5 1522.15,147.167 1539.5,147.5 Z"/></g>
<g><path style="opacity:1" fill="#e8e511" d="M 516.5,253.5 C 534.512,253.167 552.512,253.5 570.5,254.5C 564.096,271.204 552.096,277.704 534.5,274C 524.749,270.419 518.749,263.585 516.5,253.5 Z"/></g>
</svg>
