<svg xmlns="http://www.w3.org/2000/svg" viewBox="0 0 126.89 40.24"><defs><style>.cls-1{fill:#006838;}.cls-2{fill:#f9ed32;}</style></defs><title>Asset 3</title><g id="Layer_2" data-name="Layer 2"><g id="Layer_1-2" data-name="Layer 1"><path class="cls-1" d="M4.52,22.6l5.15-5.45h5l-5.18,5.6,5.57,10h-5L6,25.62l-1.5,1.47v5.66H0V10.14H4.52Z"/><path class="cls-1" d="M31,32.75H26.47V22.87A2.7,2.7,0,0,0,26,21a2,2,0,0,0-1.56-.57,4,4,0,0,0-1.76.41,5.24,5.24,0,0,0-1.29.82V32.75H16.83V17.15h4l.24,1.56a8,8,0,0,1,2.11-1.34,7.12,7.12,0,0,1,2.86-.55,4.86,4.86,0,0,1,3.77,1.29,5.77,5.77,0,0,1,1.17,4Z"/><path class="cls-1" d="M41.2,33.11a9.4,9.4,0,0,1-3.58-.6,5.93,5.93,0,0,1-2.35-1.68A6.52,6.52,0,0,1,34,28.27,12.7,12.7,0,0,1,33.59,25a10.83,10.83,0,0,1,.5-3.39,6.85,6.85,0,0,1,1.48-2.58,6.58,6.58,0,0,1,2.5-1.65,10,10,0,0,1,3.55-.58,9.3,9.3,0,0,1,3.46.58A6,6,0,0,1,47.4,19a6.57,6.57,0,0,1,1.32,2.48,11.72,11.72,0,0,1,.41,3.18,12.53,12.53,0,0,1-.44,3.47,6.72,6.72,0,0,1-1.43,2.65,6.44,6.44,0,0,1-2.47,1.69A9.63,9.63,0,0,1,41.2,33.11Zm.21-3.35a3.08,3.08,0,0,0,1.3-.26,2.3,2.3,0,0,0,.95-.84,4.49,4.49,0,0,0,.58-1.51,11.54,11.54,0,0,0,.19-2.31,6.64,6.64,0,0,0-.71-3.57,2.52,2.52,0,0,0-2.22-1,2.8,2.8,0,0,0-2.35,1.07,6,6,0,0,0-.82,3.6,7.35,7.35,0,0,0,.7,3.73A2.59,2.59,0,0,0,41.41,29.76Z"/><path class="cls-1" d="M54.49,32.75l-4.61-15.6H54.4l2.85,11h.06l2.75-11h4.43l2.76,10.9h.09l2.72-10.9h4.41l-4.65,15.6H64.73L62.22,22.57h-.06L59.85,32.75Z"/><path class="cls-1" d="M86.44,32a7.16,7.16,0,0,1-1.84.75,9.82,9.82,0,0,1-2.74.36,5.21,5.21,0,0,1-3.71-1.18,5.13,5.13,0,0,1-1.26-3.88V20.44H74.56V17.15h2.33V12.54l4.52-.6v5.21h4.13v3.29H81.41v7A2.69,2.69,0,0,0,81.79,29a1.68,1.68,0,0,0,1.45.53,4.72,4.72,0,0,0,1.41-.23,5.61,5.61,0,0,0,1.16-.49Z"/><path class="cls-1" d="M111.32,13.59a9.51,9.51,0,0,0-1-.27,5.12,5.12,0,0,0-1.09-.12,4.22,4.22,0,0,0-1,.1,1.74,1.74,0,0,0-.74.38,1.81,1.81,0,0,0-.5.77,4,4,0,0,0-.18,1.32v1.38H111v3.29h-4.13V32.75h-4.52V20.44h-2.1V17.15h2.1v-1.8a6.67,6.67,0,0,1,.42-2.48,4.53,4.53,0,0,1,1.17-1.72,4.78,4.78,0,0,1,1.81-1,7.9,7.9,0,0,1,2.35-.33,10.32,10.32,0,0,1,2.14.2,6.83,6.83,0,0,1,1.3.37Z"/><path class="cls-1" d="M110.87,17.15h4.88L119,28h.09l3.14-10.87h4.64q-1.56,4.37-3.16,8.79c-1.06,2.94-2.08,5.72-3,8.34a17.83,17.83,0,0,1-1,2.35,6.14,6.14,0,0,1-1.2,1.6,4,4,0,0,1-1.55.91,6.83,6.83,0,0,1-2.08.29,9.24,9.24,0,0,1-1.92-.21,7.23,7.23,0,0,1-1.5-.45l.33-3.27c.42.14.84.26,1.24.35a5.3,5.3,0,0,0,1.13.13,2.19,2.19,0,0,0,1.32-.39,2.87,2.87,0,0,0,.89-1.28l.48-1.23Z"/><path class="cls-2" d="M93.24,40.24a6.47,6.47,0,0,0-1-.35,5,5,0,0,1-.8-8.75A5,5,0,0,1,99,34.58a4.82,4.82,0,0,1-4.14,5.59s0,0-.08.07Z"/><path class="cls-2" d="M94.22,0a6.43,6.43,0,0,1,6.39,6.59,22.39,22.39,0,0,1-.5,3.25c-.44,2.62-.91,5.25-1.37,7.87-.42,2.39-.82,4.78-1.27,7.17a3.44,3.44,0,0,1-6.73,0c-.55-3-1.06-6-1.58-9-.47-2.62-.87-5.26-1.4-7.87A6.61,6.61,0,0,1,91.25.63,6.49,6.49,0,0,1,94.22,0Z"/></g></g></svg>